<svg xmlns="http://www.w3.org/2000/svg" width="1120" height="560" viewBox="0 0 1120 560">
  <defs>
    <style>
      .title { font: 700 24px 'Times New Roman', serif; fill: #222; }
      .label { font: 700 19px 'Times New Roman', serif; fill: #222; }
      .text { font: 15px 'Times New Roman', serif; fill: #444; }
      .frontend { fill: #f6f8fb; stroke: #506070; stroke-width: 2; rx: 14; ry: 14; }
      .backend { fill: #eef5ef; stroke: #4f7a58; stroke-width: 2; rx: 14; ry: 14; }
      .support { fill: #fff8ea; stroke: #9b7d3f; stroke-width: 2; rx: 14; ry: 14; }
      .arrow { stroke: #506070; stroke-width: 3; fill: none; marker-end: url(#arrowhead); }
      .soft-arrow { stroke: #7a6c4a; stroke-width: 2.5; fill: none; marker-end: url(#softhead); stroke-dasharray: 7 6; }
    </style>
    <marker id="arrowhead" markerWidth="10" markerHeight="7" refX="9" refY="3.5" orient="auto">
      <polygon points="0 0, 10 3.5, 0 7" fill="#506070" />
    </marker>
    <marker id="softhead" markerWidth="10" markerHeight="7" refX="9" refY="3.5" orient="auto">
      <polygon points="0 0, 10 3.5, 0 7" fill="#7a6c4a" />
    </marker>
  </defs>

  <text x="560" y="34" text-anchor="middle" class="title">Frontend Architecture</text>

  <rect x="70" y="90" width="250" height="130" class="frontend" />
  <text x="195" y="124" text-anchor="middle" class="label">Pages</text>
  <text x="195" y="154" text-anchor="middle" class="text">Contest list and detail</text>
  <text x="195" y="178" text-anchor="middle" class="text">Problem and submission views</text>
  <text x="195" y="202" text-anchor="middle" class="text">FAQ and profile pages</text>

  <rect x="385" y="90" width="250" height="130" class="frontend" />
  <text x="510" y="124" text-anchor="middle" class="label">Shared Components</text>
  <text x="510" y="154" text-anchor="middle" class="text">Layout, header, and sidebar</text>
  <text x="510" y="178" text-anchor="middle" class="text">Cards, forms, dialogs, tables</text>
  <text x="510" y="202" text-anchor="middle" class="text">Reusable UI building blocks</text>

  <rect x="700" y="90" width="250" height="130" class="frontend" />
  <text x="825" y="124" text-anchor="middle" class="label">Service Layer</text>
  <text x="825" y="154" text-anchor="middle" class="text">api.ts selects mock or server API</text>
  <text x="825" y="178" text-anchor="middle" class="text">Axios requests and interceptors</text>
  <text x="825" y="202" text-anchor="middle" class="text">Auth, contest, and system methods</text>

  <rect x="880" y="310" width="180" height="120" class="backend" />
  <text x="970" y="344" text-anchor="middle" class="label">Backend API</text>
  <text x="970" y="374" text-anchor="middle" class="text">Auth and `/me`</text>
  <text x="970" y="398" text-anchor="middle" class="text">Contest and clarification data</text>
  <text x="970" y="422" text-anchor="middle" class="text">Submission and profile data</text>

  <rect x="665" y="315" width="185" height="100" class="support" />
  <text x="757.5" y="348" text-anchor="middle" class="label">Types and Validation</text>
  <text x="757.5" y="376" text-anchor="middle" class="text">TypeScript models</text>
  <text x="757.5" y="398" text-anchor="middle" class="text">Zod schema parsing</text>

  <rect x="115" y="315" width="205" height="100" class="support" />
  <text x="217.5" y="348" text-anchor="middle" class="label">Routing</text>
  <text x="217.5" y="376" text-anchor="middle" class="text">React Router route tree</text>
  <text x="217.5" y="398" text-anchor="middle" class="text">Participant and jury navigation</text>

  <line x1="320" y1="160" x2="385" y2="160" class="arrow" />
  <line x1="635" y1="160" x2="700" y2="160" class="arrow" />
  <path d="M320 195 L320 245 L700 245 L700 195" class="arrow" />
  <path d="M950 195 L990 195 L990 310 L970 310" class="arrow" />

  <line x1="217.5" y1="315" x2="217.5" y2="220" class="soft-arrow" />
  <path d="M757.5 315 L757.5 260 L825 260 L825 220" class="soft-arrow" />
</svg>
